# MagicaVoxel @ Ephtracy

# group
o 

# material
mtllib Earth_Right_Down_2.mtl
usemtl palette

# normals
vn -1 0 0
vn 1 0 0
vn 0 0 1
vn 0 0 -1
vn 0 -1 0
vn 0 1 0

# texcoords
vt 0.986328 0.5
vt 0.990234 0.5
vt 0.994141 0.5

# verts
v -3.2 0 3.2
v -3.2 0 -3.2
v -3.2 0.1 3.2
v -3.2 0.1 -0.6
v -3.2 0.1 -1
v -3.2 0.1 -3.2
v -3.2 0.2 -0.6
v -3.2 0.2 -1
v -2.8 0.1 -1.8
v -2.8 0.1 -2.2
v -2.8 0.2 -1.8
v -2.8 0.2 -2.2
v -2.5 0.1 2.6
v -2.5 0.1 2.3
v -2.5 0.2 2.6
v -2.5 0.2 2.3
v -2.4 0.1 1
v -2.4 0.1 0.6
v -2.4 0.2 1
v -2.4 0.2 0.6
v -2 0.1 -2
v -2 0.1 -2.3
v -2 0.2 -2
v -2 0.2 -2.3
v -1.3 0.1 -2.8
v -1.3 0.1 -3.2
v -1.3 0.2 -2.8
v -1.3 0.2 -3.2
v -0.6 0.1 -2.3
v -0.6 0.1 -2.8
v -0.6 0.2 -2.3
v -0.6 0.2 -2.8
v 1.2 0.1 -2.2
v 1.2 0.1 -2.6
v 1.2 0.2 -2.2
v 1.2 0.2 -2.6
v 2.7 0.1 -2.5
v 2.7 0.1 -2.8
v 2.7 0.2 -2.5
v 2.7 0.2 -2.8
v -2.8 0.1 -0.6
v -2.8 0.1 -1
v -2.8 0.2 -0.6
v -2.8 0.2 -1
v -2.4 0.1 -1.8
v -2.4 0.1 -2.2
v -2.4 0.2 -1.8
v -2.4 0.2 -2.2
v -2.1 0.1 2.6
v -2.1 0.1 2.3
v -2.1 0.1 1
v -2.1 0.1 0.6
v -2.1 0.2 2.6
v -2.1 0.2 2.3
v -2.1 0.2 1
v -2.1 0.2 0.6
v -1.8 0.1 -2
v -1.8 0.1 -2.3
v -1.8 0.2 -2
v -1.8 0.2 -2.3
v -1.1 0.1 -2.8
v -1.1 0.1 -3.2
v -1.1 0.2 -2.8
v -1.1 0.2 -3.2
v -0.0999999 0.1 -2.3
v -0.0999999 0.1 -2.8
v -0.0999999 0.2 -2.3
v -0.0999999 0.2 -2.8
v 1.5 0.1 -2.2
v 1.5 0.1 -2.6
v 1.5 0.2 -2.2
v 1.5 0.2 -2.6
v 3.2 0 3.2
v 3.2 0 -2
v 3.2 0 -3.2
v 3.2 0.1 3.2
v 3.2 0.1 -2
v 3.2 0.1 -2.5
v 3.2 0.1 -2.8
v 3.2 0.1 -3.2
v 3.2 0.2 -2.5
v 3.2 0.2 -2.8
v -3.2 0 3.2
v -3.2 0.1 3.2
v -2 0 3.2
v -2 0.1 3.2
v 3.2 0 3.2
v 3.2 0.1 3.2
v -2.5 0.1 2.6
v -2.5 0.2 2.6
v -2.1 0.1 2.6
v -2.1 0.2 2.6
v -2.4 0.1 1
v -2.4 0.2 1
v -2.1 0.1 1
v -2.1 0.2 1
v -3.2 0.1 -0.6
v -3.2 0.2 -0.6
v -2.8 0.1 -0.6
v -2.8 0.2 -0.6
v -2.8 0.1 -1.8
v -2.8 0.2 -1.8
v -2.4 0.1 -1.8
v -2.4 0.2 -1.8
v -2 0.1 -2
v -2 0.2 -2
v -1.8 0.1 -2
v -1.8 0.2 -2
v 1.2 0.1 -2.2
v 1.2 0.2 -2.2
v 1.5 0.1 -2.2
v 1.5 0.2 -2.2
v -0.6 0.1 -2.3
v -0.6 0.2 -2.3
v -0.0999999 0.1 -2.3
v -0.0999999 0.2 -2.3
v 2.7 0.1 -2.5
v 2.7 0.2 -2.5
v 3.2 0.1 -2.5
v 3.2 0.2 -2.5
v -1.3 0.1 -2.8
v -1.3 0.2 -2.8
v -1.1 0.1 -2.8
v -1.1 0.2 -2.8
v -2.5 0.1 2.3
v -2.5 0.2 2.3
v -2.1 0.1 2.3
v -2.1 0.2 2.3
v -2.4 0.1 0.6
v -2.4 0.2 0.6
v -2.1 0.1 0.6
v -2.1 0.2 0.6
v -3.2 0.1 -1
v -3.2 0.2 -1
v -2.8 0.1 -1
v -2.8 0.2 -1
v -2.8 0.1 -2.2
v -2.8 0.2 -2.2
v -2.4 0.1 -2.2
v -2.4 0.2 -2.2
v -2 0.1 -2.3
v -2 0.2 -2.3
v -1.8 0.1 -2.3
v -1.8 0.2 -2.3
v 1.2 0.1 -2.6
v 1.2 0.2 -2.6
v 1.5 0.1 -2.6
v 1.5 0.2 -2.6
v -0.6 0.1 -2.8
v -0.6 0.2 -2.8
v -0.0999999 0.1 -2.8
v -0.0999999 0.2 -2.8
v 2.7 0.1 -2.8
v 2.7 0.2 -2.8
v 3.2 0.1 -2.8
v 3.2 0.2 -2.8
v -3.2 0 -3.2
v -3.2 0.1 -3.2
v -1.3 0.1 -3.2
v -1.3 0.2 -3.2
v -1.1 0.1 -3.2
v -1.1 0.2 -3.2
v 3.2 0 -3.2
v 3.2 0.1 -3.2
v -3.2 0 3.2
v -2 0 3.2
v 3.2 0 3.2
v -2 0 -2
v 3.2 0 -2
v -3.2 0 -3.2
v 3.2 0 -3.2
v -3.2 0.1 3.2
v -2 0.1 3.2
v 3.2 0.1 3.2
v -2.5 0.1 2.6
v -2.1 0.1 2.6
v -2.5 0.1 2.3
v -2.1 0.1 2.3
v -2.4 0.1 1
v -2.1 0.1 1
v -2.4 0.1 0.6
v -2.1 0.1 0.6
v -3.2 0.1 -0.6
v -2.8 0.1 -0.6
v -3.2 0.1 -1
v -2.8 0.1 -1
v -2.8 0.1 -1.8
v -2.4 0.1 -1.8
v -2 0.1 -2
v -1.8 0.1 -2
v 3.2 0.1 -2
v -2.8 0.1 -2.2
v -2.4 0.1 -2.2
v 1.2 0.1 -2.2
v 1.5 0.1 -2.2
v -2 0.1 -2.3
v -1.8 0.1 -2.3
v -0.6 0.1 -2.3
v -0.0999999 0.1 -2.3
v 2.7 0.1 -2.5
v 3.2 0.1 -2.5
v 1.2 0.1 -2.6
v 1.5 0.1 -2.6
v -1.3 0.1 -2.8
v -1.1 0.1 -2.8
v -0.6 0.1 -2.8
v -0.0999999 0.1 -2.8
v 2.7 0.1 -2.8
v 3.2 0.1 -2.8
v -3.2 0.1 -3.2
v -1.3 0.1 -3.2
v -1.1 0.1 -3.2
v 3.2 0.1 -3.2
v -2.5 0.2 2.6
v -2.1 0.2 2.6
v -2.5 0.2 2.3
v -2.1 0.2 2.3
v -2.4 0.2 1
v -2.1 0.2 1
v -2.4 0.2 0.6
v -2.1 0.2 0.6
v -3.2 0.2 -0.6
v -2.8 0.2 -0.6
v -3.2 0.2 -1
v -2.8 0.2 -1
v -2.8 0.2 -1.8
v -2.4 0.2 -1.8
v -2 0.2 -2
v -1.8 0.2 -2
v -2.8 0.2 -2.2
v -2.4 0.2 -2.2
v 1.2 0.2 -2.2
v 1.5 0.2 -2.2
v -2 0.2 -2.3
v -1.8 0.2 -2.3
v -0.6 0.2 -2.3
v -0.0999999 0.2 -2.3
v 2.7 0.2 -2.5
v 3.2 0.2 -2.5
v 1.2 0.2 -2.6
v 1.5 0.2 -2.6
v -1.3 0.2 -2.8
v -1.1 0.2 -2.8
v -0.6 0.2 -2.8
v -0.0999999 0.2 -2.8
v 2.7 0.2 -2.8
v 3.2 0.2 -2.8
v -1.3 0.2 -3.2
v -1.1 0.2 -3.2

# faces
f 3/3/1 2/3/1 1/3/1
f 4/3/1 2/3/1 3/3/1
f 5/3/1 2/3/1 4/3/1
f 6/3/1 2/3/1 5/3/1
f 7/2/1 5/2/1 4/2/1
f 8/2/1 5/2/1 7/2/1
f 11/2/1 10/2/1 9/2/1
f 12/2/1 10/2/1 11/2/1
f 15/2/1 14/2/1 13/2/1
f 16/2/1 14/2/1 15/2/1
f 19/2/1 18/2/1 17/2/1
f 20/2/1 18/2/1 19/2/1
f 23/2/1 22/2/1 21/2/1
f 24/2/1 22/2/1 23/2/1
f 27/2/1 26/2/1 25/2/1
f 28/2/1 26/2/1 27/2/1
f 31/2/1 30/2/1 29/2/1
f 32/2/1 30/2/1 31/2/1
f 35/2/1 34/2/1 33/2/1
f 36/2/1 34/2/1 35/2/1
f 39/2/1 38/2/1 37/2/1
f 40/2/1 38/2/1 39/2/1
f 41/2/2 42/2/2 43/2/2
f 43/2/2 42/2/2 44/2/2
f 45/2/2 46/2/2 47/2/2
f 47/2/2 46/2/2 48/2/2
f 49/2/2 50/2/2 53/2/2
f 53/2/2 50/2/2 54/2/2
f 51/2/2 52/2/2 55/2/2
f 55/2/2 52/2/2 56/2/2
f 57/2/2 58/2/2 59/2/2
f 59/2/2 58/2/2 60/2/2
f 61/2/2 62/2/2 63/2/2
f 63/2/2 62/2/2 64/2/2
f 65/2/2 66/2/2 67/2/2
f 67/2/2 66/2/2 68/2/2
f 69/2/2 70/2/2 71/2/2
f 71/2/2 70/2/2 72/2/2
f 73/1/2 74/1/2 76/1/2
f 74/3/2 75/3/2 77/3/2
f 76/1/2 74/1/2 77/1/2
f 77/3/2 75/3/2 78/3/2
f 78/3/2 75/3/2 79/3/2
f 79/3/2 75/3/2 80/3/2
f 78/2/2 79/2/2 81/2/2
f 81/2/2 79/2/2 82/2/2
f 85/3/3 84/3/3 83/3/3
f 86/3/3 84/3/3 85/3/3
f 87/1/3 86/1/3 85/1/3
f 88/1/3 86/1/3 87/1/3
f 91/2/3 90/2/3 89/2/3
f 92/2/3 90/2/3 91/2/3
f 95/2/3 94/2/3 93/2/3
f 96/2/3 94/2/3 95/2/3
f 99/2/3 98/2/3 97/2/3
f 100/2/3 98/2/3 99/2/3
f 103/2/3 102/2/3 101/2/3
f 104/2/3 102/2/3 103/2/3
f 107/2/3 106/2/3 105/2/3
f 108/2/3 106/2/3 107/2/3
f 111/2/3 110/2/3 109/2/3
f 112/2/3 110/2/3 111/2/3
f 115/2/3 114/2/3 113/2/3
f 116/2/3 114/2/3 115/2/3
f 119/2/3 118/2/3 117/2/3
f 120/2/3 118/2/3 119/2/3
f 123/2/3 122/2/3 121/2/3
f 124/2/3 122/2/3 123/2/3
f 125/2/4 126/2/4 127/2/4
f 127/2/4 126/2/4 128/2/4
f 129/2/4 130/2/4 131/2/4
f 131/2/4 130/2/4 132/2/4
f 133/2/4 134/2/4 135/2/4
f 135/2/4 134/2/4 136/2/4
f 137/2/4 138/2/4 139/2/4
f 139/2/4 138/2/4 140/2/4
f 141/2/4 142/2/4 143/2/4
f 143/2/4 142/2/4 144/2/4
f 145/2/4 146/2/4 147/2/4
f 147/2/4 146/2/4 148/2/4
f 149/2/4 150/2/4 151/2/4
f 151/2/4 150/2/4 152/2/4
f 153/2/4 154/2/4 155/2/4
f 155/2/4 154/2/4 156/2/4
f 157/3/4 158/3/4 159/3/4
f 157/3/4 159/3/4 161/3/4
f 159/2/4 160/2/4 161/2/4
f 161/2/4 160/2/4 162/2/4
f 157/3/4 161/3/4 163/3/4
f 163/3/4 161/3/4 164/3/4
f 168/3/5 166/3/5 165/3/5
f 168/1/5 167/1/5 166/1/5
f 169/1/5 167/1/5 168/1/5
f 170/3/5 168/3/5 165/3/5
f 170/3/5 169/3/5 168/3/5
f 171/3/5 169/3/5 170/3/5
f 172/3/6 173/3/6 175/3/6
f 175/3/6 173/3/6 176/3/6
f 172/3/6 175/3/6 177/3/6
f 176/3/6 173/3/6 178/3/6
f 177/3/6 178/3/6 179/3/6
f 178/3/6 173/3/6 180/3/6
f 179/3/6 178/3/6 180/3/6
f 177/3/6 179/3/6 181/3/6
f 180/3/6 173/3/6 182/3/6
f 172/3/6 177/3/6 183/3/6
f 181/3/6 182/3/6 183/3/6
f 177/3/6 181/3/6 183/3/6
f 183/3/6 182/3/6 184/3/6
f 184/3/6 182/3/6 186/3/6
f 186/3/6 182/3/6 187/3/6
f 185/3/6 186/3/6 187/3/6
f 187/3/6 182/3/6 188/3/6
f 173/1/6 174/1/6 189/1/6
f 188/3/6 182/3/6 189/3/6
f 182/3/6 173/3/6 189/3/6
f 189/1/6 174/1/6 190/1/6
f 190/1/6 174/1/6 191/1/6
f 185/3/6 187/3/6 192/3/6
f 188/3/6 189/3/6 193/3/6
f 190/3/6 191/3/6 194/3/6
f 194/3/6 191/3/6 195/3/6
f 192/3/6 193/3/6 196/3/6
f 193/3/6 189/3/6 196/3/6
f 190/3/6 194/3/6 197/3/6
f 197/3/6 194/3/6 198/3/6
f 198/3/6 194/3/6 199/3/6
f 195/3/6 191/3/6 200/3/6
f 200/3/6 191/3/6 201/3/6
f 199/3/6 194/3/6 202/3/6
f 195/3/6 200/3/6 203/3/6
f 196/3/6 197/3/6 204/3/6
f 197/3/6 198/3/6 204/3/6
f 204/3/6 198/3/6 205/3/6
f 205/3/6 198/3/6 206/3/6
f 202/3/6 203/3/6 207/3/6
f 199/3/6 202/3/6 207/3/6
f 203/3/6 200/3/6 208/3/6
f 207/3/6 203/3/6 208/3/6
f 185/3/6 192/3/6 210/3/6
f 192/3/6 196/3/6 210/3/6
f 196/3/6 204/3/6 210/3/6
f 210/3/6 204/3/6 211/3/6
f 208/3/6 209/3/6 212/3/6
f 207/3/6 208/3/6 212/3/6
f 205/3/6 206/3/6 212/3/6
f 206/3/6 207/3/6 212/3/6
f 212/3/6 209/3/6 213/3/6
f 214/2/6 215/2/6 216/2/6
f 216/2/6 215/2/6 217/2/6
f 218/2/6 219/2/6 220/2/6
f 220/2/6 219/2/6 221/2/6
f 222/2/6 223/2/6 224/2/6
f 224/2/6 223/2/6 225/2/6
f 226/2/6 227/2/6 230/2/6
f 230/2/6 227/2/6 231/2/6
f 228/2/6 229/2/6 234/2/6
f 234/2/6 229/2/6 235/2/6
f 232/2/6 233/2/6 240/2/6
f 240/2/6 233/2/6 241/2/6
f 236/2/6 237/2/6 244/2/6
f 244/2/6 237/2/6 245/2/6
f 238/2/6 239/2/6 246/2/6
f 246/2/6 239/2/6 247/2/6
f 242/2/6 243/2/6 248/2/6
f 248/2/6 243/2/6 249/2/6
