# MagicaVoxel @ Ephtracy

# group
o 

# material
mtllib Earth_Left_Down_1.mtl
usemtl palette

# normals
vn -1 0 0
vn 1 0 0
vn 0 0 1
vn 0 0 -1
vn 0 -1 0
vn 0 1 0

# texcoords
vt 0.986328 0.5
vt 0.990234 0.5
vt 0.994141 0.5

# verts
v -3.2 0 3.2
v -3.2 0 -3.2
v -3.2 0.1 3.2
v -3.2 0.1 -3.2
v 2.7 0.1 -2.5
v 2.7 0.1 -2.8
v 2.7 0.2 -2.5
v 2.7 0.2 -2.8
v 3.2 0 3.2
v 3.2 0 -2
v 3.2 0 -3.2
v 3.2 0.1 3.2
v 3.2 0.1 -2
v 3.2 0.1 -2.5
v 3.2 0.1 -2.8
v 3.2 0.1 -3.2
v 3.2 0.2 -2.5
v 3.2 0.2 -2.8
v -3.2 0 3.2
v -3.2 0.1 3.2
v 3.2 0 3.2
v 3.2 0.1 3.2
v 2.7 0.1 -2.5
v 2.7 0.2 -2.5
v 3.2 0.1 -2.5
v 3.2 0.2 -2.5
v 2.7 0.1 -2.8
v 2.7 0.2 -2.8
v 3.2 0.1 -2.8
v 3.2 0.2 -2.8
v -3.2 0 -3.2
v -3.2 0.1 -3.2
v 2 0 -3.2
v 2 0.1 -3.2
v 3.2 0 -3.2
v 3.2 0.1 -3.2
v -3.2 0 3.2
v 3.2 0 3.2
v 2 0 -2
v 3.2 0 -2
v -3.2 0 -3.2
v 2 0 -3.2
v 3.2 0 -3.2
v -3.2 0.1 3.2
v 3.2 0.1 3.2
v 2 0.1 -2
v 3.2 0.1 -2
v 2.7 0.1 -2.5
v 3.2 0.1 -2.5
v 2.7 0.1 -2.8
v 3.2 0.1 -2.8
v -3.2 0.1 -3.2
v 2 0.1 -3.2
v 3.2 0.1 -3.2
v 2.7 0.2 -2.5
v 3.2 0.2 -2.5
v 2.7 0.2 -2.8
v 3.2 0.2 -2.8

# faces
f 3/1/1 2/1/1 1/1/1
f 4/1/1 2/1/1 3/1/1
f 7/2/1 6/2/1 5/2/1
f 8/2/1 6/2/1 7/2/1
f 9/1/2 10/1/2 12/1/2
f 10/3/2 11/3/2 13/3/2
f 12/1/2 10/1/2 13/1/2
f 13/3/2 11/3/2 14/3/2
f 14/3/2 11/3/2 15/3/2
f 15/3/2 11/3/2 16/3/2
f 14/2/2 15/2/2 17/2/2
f 17/2/2 15/2/2 18/2/2
f 21/1/3 20/1/3 19/1/3
f 22/1/3 20/1/3 21/1/3
f 25/2/3 24/2/3 23/2/3
f 26/2/3 24/2/3 25/2/3
f 27/2/4 28/2/4 29/2/4
f 29/2/4 28/2/4 30/2/4
f 31/1/4 32/1/4 33/1/4
f 33/1/4 32/1/4 34/1/4
f 33/3/4 34/3/4 35/3/4
f 35/3/4 34/3/4 36/3/4
f 39/1/5 38/1/5 37/1/5
f 40/1/5 38/1/5 39/1/5
f 41/1/5 39/1/5 37/1/5
f 42/3/5 40/3/5 39/3/5
f 42/1/5 39/1/5 41/1/5
f 43/3/5 40/3/5 42/3/5
f 44/1/6 45/1/6 46/1/6
f 46/1/6 45/1/6 47/1/6
f 46/3/6 47/3/6 48/3/6
f 48/3/6 47/3/6 49/3/6
f 46/3/6 48/3/6 50/3/6
f 44/1/6 46/1/6 52/1/6
f 50/3/6 51/3/6 53/3/6
f 52/1/6 46/1/6 53/1/6
f 46/3/6 50/3/6 53/3/6
f 53/3/6 51/3/6 54/3/6
f 55/2/6 56/2/6 57/2/6
f 57/2/6 56/2/6 58/2/6
