# MagicaVoxel @ Ephtracy

# group
o 

# material
mtllib Earth_Left_Up_2.mtl
usemtl palette

# normals
vn -1 0 0
vn 1 0 0
vn 0 0 1
vn 0 0 -1
vn 0 -1 0
vn 0 1 0

# texcoords
vt 0.986328 0.5
vt 0.990234 0.5
vt 0.994141 0.5

# verts
v -3.2 0 3.2
v -3.2 0 2
v -3.2 0 -3.2
v -3.2 0.1 3.2
v -3.2 0.1 2
v -3.2 0.1 -3.2
v -2.5 0.1 2.6
v -2.5 0.1 2.3
v -2.5 0.2 2.6
v -2.5 0.2 2.3
v -0.7 0.1 2.7
v -0.7 0.1 2.1
v -0.7 0.2 2.7
v -0.7 0.2 2.1
v 0.7 0.1 3.2
v 0.7 0.1 2.6
v 0.7 0.2 3.2
v 0.7 0.2 2.6
v 1.6 0.1 2.6
v 1.6 0.1 2.2
v 1.6 0.2 2.6
v 1.6 0.2 2.2
v 2.2 0.1 -1.4
v 2.2 0.1 -1.8
v 2.2 0.2 -1.4
v 2.2 0.2 -1.8
v 2.5 0.1 -0.2
v 2.5 0.1 -0.5
v 2.5 0.2 -0.2
v 2.5 0.2 -0.5
v 2.7 0.1 1.5
v 2.7 0.1 1.2
v 2.7 0.1 -2.5
v 2.7 0.1 -2.8
v 2.7 0.2 1.5
v 2.7 0.2 1.2
v 2.7 0.2 -2.5
v 2.7 0.2 -2.8
v 3 0.1 3.1
v 3 0.1 2.8
v 3 0.2 3.1
v 3 0.2 2.8
v -2.1 0.1 2.6
v -2.1 0.1 2.3
v -2.1 0.2 2.6
v -2.1 0.2 2.3
v -0.2 0.1 2.7
v -0.2 0.1 2.1
v -0.2 0.2 2.7
v -0.2 0.2 2.1
v 1.1 0.1 3.2
v 1.1 0.1 2.6
v 1.1 0.2 3.2
v 1.1 0.2 2.6
v 2 0.1 2.6
v 2 0.1 2.2
v 2 0.2 2.6
v 2 0.2 2.2
v 2.6 0.1 -1.4
v 2.6 0.1 -1.8
v 2.6 0.2 -1.4
v 2.6 0.2 -1.8
v 2.8 0.1 -0.2
v 2.8 0.1 -0.5
v 2.8 0.2 -0.2
v 2.8 0.2 -0.5
v 3.1 0.1 1.5
v 3.1 0.1 1.2
v 3.1 0.2 1.5
v 3.1 0.2 1.2
v 3.2 0 3.2
v 3.2 0 -3.2
v 3.2 0.1 3.2
v 3.2 0.1 3.1
v 3.2 0.1 2.8
v 3.2 0.1 -2.5
v 3.2 0.1 -2.8
v 3.2 0.1 -3.2
v 3.2 0.2 3.1
v 3.2 0.2 2.8
v 3.2 0.2 -2.5
v 3.2 0.2 -2.8
v -3.2 0 3.2
v -3.2 0.1 3.2
v 0.7 0.1 3.2
v 0.7 0.2 3.2
v 1.1 0.1 3.2
v 1.1 0.2 3.2
v 3.2 0 3.2
v 3.2 0.1 3.2
v 3 0.1 3.1
v 3 0.2 3.1
v 3.2 0.1 3.1
v 3.2 0.2 3.1
v -0.7 0.1 2.7
v -0.7 0.2 2.7
v -0.2 0.1 2.7
v -0.2 0.2 2.7
v -2.5 0.1 2.6
v -2.5 0.2 2.6
v -2.1 0.1 2.6
v -2.1 0.2 2.6
v 1.6 0.1 2.6
v 1.6 0.2 2.6
v 2 0.1 2.6
v 2 0.2 2.6
v 2.7 0.1 1.5
v 2.7 0.2 1.5
v 3.1 0.1 1.5
v 3.1 0.2 1.5
v 2.5 0.1 -0.2
v 2.5 0.2 -0.2
v 2.8 0.1 -0.2
v 2.8 0.2 -0.2
v 2.2 0.1 -1.4
v 2.2 0.2 -1.4
v 2.6 0.1 -1.4
v 2.6 0.2 -1.4
v 2.7 0.1 -2.5
v 2.7 0.2 -2.5
v 3.2 0.1 -2.5
v 3.2 0.2 -2.5
v 3 0.1 2.8
v 3 0.2 2.8
v 3.2 0.1 2.8
v 3.2 0.2 2.8
v 0.7 0.1 2.6
v 0.7 0.2 2.6
v 1.1 0.1 2.6
v 1.1 0.2 2.6
v -2.5 0.1 2.3
v -2.5 0.2 2.3
v -2.1 0.1 2.3
v -2.1 0.2 2.3
v 1.6 0.1 2.2
v 1.6 0.2 2.2
v 2 0.1 2.2
v 2 0.2 2.2
v -0.7 0.1 2.1
v -0.7 0.2 2.1
v -0.2 0.1 2.1
v -0.2 0.2 2.1
v 2.7 0.1 1.2
v 2.7 0.2 1.2
v 3.1 0.1 1.2
v 3.1 0.2 1.2
v 2.5 0.1 -0.5
v 2.5 0.2 -0.5
v 2.8 0.1 -0.5
v 2.8 0.2 -0.5
v 2.2 0.1 -1.8
v 2.2 0.2 -1.8
v 2.6 0.1 -1.8
v 2.6 0.2 -1.8
v 2.7 0.1 -2.8
v 2.7 0.2 -2.8
v 3.2 0.1 -2.8
v 3.2 0.2 -2.8
v -3.2 0 -3.2
v -3.2 0.1 -3.2
v 2 0 -3.2
v 2 0.1 -3.2
v 3.2 0 -3.2
v 3.2 0.1 -3.2
v -3.2 0 3.2
v 3.2 0 3.2
v -3.2 0 2
v 2 0 2
v -3.2 0 -3.2
v 2 0 -3.2
v 3.2 0 -3.2
v -3.2 0.1 3.2
v 0.7 0.1 3.2
v 1.1 0.1 3.2
v 3.2 0.1 3.2
v 3 0.1 3.1
v 3.2 0.1 3.1
v 3 0.1 2.8
v 3.2 0.1 2.8
v -0.7 0.1 2.7
v -0.2 0.1 2.7
v -2.5 0.1 2.6
v -2.1 0.1 2.6
v 0.7 0.1 2.6
v 1.1 0.1 2.6
v 1.6 0.1 2.6
v 2 0.1 2.6
v -2.5 0.1 2.3
v -2.1 0.1 2.3
v 1.6 0.1 2.2
v 2 0.1 2.2
v -0.7 0.1 2.1
v -0.2 0.1 2.1
v -3.2 0.1 2
v 2 0.1 2
v 2.7 0.1 1.5
v 3.1 0.1 1.5
v 2.7 0.1 1.2
v 3.1 0.1 1.2
v 2.5 0.1 -0.2
v 2.8 0.1 -0.2
v 2.5 0.1 -0.5
v 2.8 0.1 -0.5
v 2.2 0.1 -1.4
v 2.6 0.1 -1.4
v 2.2 0.1 -1.8
v 2.6 0.1 -1.8
v 2.7 0.1 -2.5
v 3.2 0.1 -2.5
v 2.7 0.1 -2.8
v 3.2 0.1 -2.8
v -3.2 0.1 -3.2
v 2 0.1 -3.2
v 3.2 0.1 -3.2
v 0.7 0.2 3.2
v 1.1 0.2 3.2
v 3 0.2 3.1
v 3.2 0.2 3.1
v 3 0.2 2.8
v 3.2 0.2 2.8
v -0.7 0.2 2.7
v -0.2 0.2 2.7
v -2.5 0.2 2.6
v -2.1 0.2 2.6
v 0.7 0.2 2.6
v 1.1 0.2 2.6
v 1.6 0.2 2.6
v 2 0.2 2.6
v -2.5 0.2 2.3
v -2.1 0.2 2.3
v 1.6 0.2 2.2
v 2 0.2 2.2
v -0.7 0.2 2.1
v -0.2 0.2 2.1
v 2.7 0.2 1.5
v 3.1 0.2 1.5
v 2.7 0.2 1.2
v 3.1 0.2 1.2
v 2.5 0.2 -0.2
v 2.8 0.2 -0.2
v 2.5 0.2 -0.5
v 2.8 0.2 -0.5
v 2.2 0.2 -1.4
v 2.6 0.2 -1.4
v 2.2 0.2 -1.8
v 2.6 0.2 -1.8
v 2.7 0.2 -2.5
v 3.2 0.2 -2.5
v 2.7 0.2 -2.8
v 3.2 0.2 -2.8

# faces
f 4/3/1 2/3/1 1/3/1
f 5/1/1 3/1/1 2/1/1
f 5/3/1 2/3/1 4/3/1
f 6/1/1 3/1/1 5/1/1
f 9/2/1 8/2/1 7/2/1
f 10/2/1 8/2/1 9/2/1
f 13/2/1 12/2/1 11/2/1
f 14/2/1 12/2/1 13/2/1
f 17/2/1 16/2/1 15/2/1
f 18/2/1 16/2/1 17/2/1
f 21/2/1 20/2/1 19/2/1
f 22/2/1 20/2/1 21/2/1
f 25/2/1 24/2/1 23/2/1
f 26/2/1 24/2/1 25/2/1
f 29/2/1 28/2/1 27/2/1
f 30/2/1 28/2/1 29/2/1
f 35/2/1 32/2/1 31/2/1
f 36/2/1 32/2/1 35/2/1
f 37/2/1 34/2/1 33/2/1
f 38/2/1 34/2/1 37/2/1
f 41/2/1 40/2/1 39/2/1
f 42/2/1 40/2/1 41/2/1
f 43/2/2 44/2/2 45/2/2
f 45/2/2 44/2/2 46/2/2
f 47/2/2 48/2/2 49/2/2
f 49/2/2 48/2/2 50/2/2
f 51/2/2 52/2/2 53/2/2
f 53/2/2 52/2/2 54/2/2
f 55/2/2 56/2/2 57/2/2
f 57/2/2 56/2/2 58/2/2
f 59/2/2 60/2/2 61/2/2
f 61/2/2 60/2/2 62/2/2
f 63/2/2 64/2/2 65/2/2
f 65/2/2 64/2/2 66/2/2
f 67/2/2 68/2/2 69/2/2
f 69/2/2 68/2/2 70/2/2
f 71/3/2 72/3/2 73/3/2
f 73/3/2 72/3/2 74/3/2
f 74/3/2 72/3/2 75/3/2
f 75/3/2 72/3/2 76/3/2
f 76/3/2 72/3/2 77/3/2
f 77/3/2 72/3/2 78/3/2
f 74/2/2 75/2/2 79/2/2
f 79/2/2 75/2/2 80/2/2
f 76/2/2 77/2/2 81/2/2
f 81/2/2 77/2/2 82/2/2
f 85/3/3 84/3/3 83/3/3
f 87/3/3 85/3/3 83/3/3
f 87/2/3 86/2/3 85/2/3
f 88/2/3 86/2/3 87/2/3
f 89/3/3 87/3/3 83/3/3
f 90/3/3 87/3/3 89/3/3
f 93/2/3 92/2/3 91/2/3
f 94/2/3 92/2/3 93/2/3
f 97/2/3 96/2/3 95/2/3
f 98/2/3 96/2/3 97/2/3
f 101/2/3 100/2/3 99/2/3
f 102/2/3 100/2/3 101/2/3
f 105/2/3 104/2/3 103/2/3
f 106/2/3 104/2/3 105/2/3
f 109/2/3 108/2/3 107/2/3
f 110/2/3 108/2/3 109/2/3
f 113/2/3 112/2/3 111/2/3
f 114/2/3 112/2/3 113/2/3
f 117/2/3 116/2/3 115/2/3
f 118/2/3 116/2/3 117/2/3
f 121/2/3 120/2/3 119/2/3
f 122/2/3 120/2/3 121/2/3
f 123/2/4 124/2/4 125/2/4
f 125/2/4 124/2/4 126/2/4
f 127/2/4 128/2/4 129/2/4
f 129/2/4 128/2/4 130/2/4
f 131/2/4 132/2/4 133/2/4
f 133/2/4 132/2/4 134/2/4
f 135/2/4 136/2/4 137/2/4
f 137/2/4 136/2/4 138/2/4
f 139/2/4 140/2/4 141/2/4
f 141/2/4 140/2/4 142/2/4
f 143/2/4 144/2/4 145/2/4
f 145/2/4 144/2/4 146/2/4
f 147/2/4 148/2/4 149/2/4
f 149/2/4 148/2/4 150/2/4
f 151/2/4 152/2/4 153/2/4
f 153/2/4 152/2/4 154/2/4
f 155/2/4 156/2/4 157/2/4
f 157/2/4 156/2/4 158/2/4
f 159/1/4 160/1/4 161/1/4
f 161/1/4 160/1/4 162/1/4
f 161/3/4 162/3/4 163/3/4
f 163/3/4 162/3/4 164/3/4
f 167/3/5 166/3/5 165/3/5
f 168/3/5 166/3/5 167/3/5
f 169/1/5 168/1/5 167/1/5
f 170/3/5 166/3/5 168/3/5
f 170/1/5 168/1/5 169/1/5
f 171/3/5 166/3/5 170/3/5
f 174/3/6 175/3/6 176/3/6
f 176/3/6 175/3/6 177/3/6
f 174/3/6 176/3/6 178/3/6
f 172/3/6 173/3/6 180/3/6
f 180/3/6 173/3/6 181/3/6
f 172/3/6 180/3/6 182/3/6
f 182/3/6 180/3/6 183/3/6
f 181/3/6 173/3/6 184/3/6
f 178/3/6 179/3/6 185/3/6
f 174/3/6 178/3/6 185/3/6
f 185/3/6 179/3/6 186/3/6
f 186/3/6 179/3/6 187/3/6
f 172/3/6 182/3/6 188/3/6
f 183/3/6 180/3/6 189/3/6
f 185/3/6 186/3/6 190/3/6
f 184/3/6 185/3/6 190/3/6
f 187/3/6 179/3/6 191/3/6
f 188/3/6 189/3/6 192/3/6
f 189/3/6 180/3/6 192/3/6
f 181/3/6 184/3/6 193/3/6
f 184/3/6 190/3/6 193/3/6
f 190/3/6 191/3/6 193/3/6
f 188/3/6 192/3/6 194/3/6
f 192/3/6 193/3/6 194/3/6
f 172/3/6 188/3/6 194/3/6
f 193/3/6 191/3/6 195/3/6
f 194/3/6 193/3/6 195/3/6
f 191/3/6 179/3/6 195/3/6
f 195/3/6 179/3/6 196/3/6
f 196/3/6 179/3/6 197/3/6
f 195/3/6 196/3/6 198/3/6
f 197/3/6 179/3/6 199/3/6
f 195/3/6 198/3/6 200/3/6
f 198/3/6 199/3/6 200/3/6
f 200/3/6 199/3/6 201/3/6
f 195/3/6 200/3/6 202/3/6
f 201/3/6 199/3/6 203/3/6
f 195/3/6 202/3/6 204/3/6
f 202/3/6 203/3/6 204/3/6
f 204/3/6 203/3/6 205/3/6
f 195/3/6 204/3/6 206/3/6
f 205/3/6 203/3/6 207/3/6
f 207/3/6 203/3/6 208/3/6
f 206/3/6 207/3/6 208/3/6
f 199/3/6 179/3/6 209/3/6
f 208/3/6 203/3/6 209/3/6
f 203/3/6 199/3/6 209/3/6
f 206/3/6 208/3/6 210/3/6
f 194/1/6 195/1/6 212/1/6
f 210/3/6 211/3/6 213/3/6
f 212/1/6 195/1/6 213/1/6
f 195/3/6 206/3/6 213/3/6
f 206/3/6 210/3/6 213/3/6
f 213/3/6 211/3/6 214/3/6
f 217/2/6 218/2/6 219/2/6
f 219/2/6 218/2/6 220/2/6
f 215/2/6 216/2/6 225/2/6
f 225/2/6 216/2/6 226/2/6
f 223/2/6 224/2/6 229/2/6
f 229/2/6 224/2/6 230/2/6
f 227/2/6 228/2/6 231/2/6
f 231/2/6 228/2/6 232/2/6
f 221/2/6 222/2/6 233/2/6
f 233/2/6 222/2/6 234/2/6
f 235/2/6 236/2/6 237/2/6
f 237/2/6 236/2/6 238/2/6
f 239/2/6 240/2/6 241/2/6
f 241/2/6 240/2/6 242/2/6
f 243/2/6 244/2/6 245/2/6
f 245/2/6 244/2/6 246/2/6
f 247/2/6 248/2/6 249/2/6
f 249/2/6 248/2/6 250/2/6
