# MagicaVoxel @ Ephtracy

# group
o 

# material
mtllib Earth_Left_1.mtl
usemtl palette

# normals
vn -1 0 0
vn 1 0 0
vn 0 0 1
vn 0 0 -1
vn 0 -1 0
vn 0 1 0

# texcoords
vt 0.986328 0.5
vt 0.990234 0.5
vt 0.994141 0.5

# verts
v -3.2 0 3.2
v -3.2 0 -3.2
v -3.2 0.1 3.2
v -3.2 0.1 -3.2
v 2.2 0.1 -1.4
v 2.2 0.1 -1.8
v 2.2 0.2 -1.4
v 2.2 0.2 -1.8
v 2.5 0.1 -0.2
v 2.5 0.1 -0.5
v 2.5 0.2 -0.2
v 2.5 0.2 -0.5
v 2.7 0.1 1.5
v 2.7 0.1 1.2
v 2.7 0.1 -2.5
v 2.7 0.1 -2.8
v 2.7 0.2 1.5
v 2.7 0.2 1.2
v 2.7 0.2 -2.5
v 2.7 0.2 -2.8
v 3 0.1 3.1
v 3 0.1 2.8
v 3 0.2 3.1
v 3 0.2 2.8
v 2.6 0.1 -1.4
v 2.6 0.1 -1.8
v 2.6 0.2 -1.4
v 2.6 0.2 -1.8
v 2.8 0.1 -0.2
v 2.8 0.1 -0.5
v 2.8 0.2 -0.2
v 2.8 0.2 -0.5
v 3.1 0.1 1.5
v 3.1 0.1 1.2
v 3.1 0.2 1.5
v 3.1 0.2 1.2
v 3.2 0 3.2
v 3.2 0 -3.2
v 3.2 0.1 3.2
v 3.2 0.1 3.1
v 3.2 0.1 2.8
v 3.2 0.1 -2.5
v 3.2 0.1 -2.8
v 3.2 0.1 -3.2
v 3.2 0.2 3.1
v 3.2 0.2 2.8
v 3.2 0.2 -2.5
v 3.2 0.2 -2.8
v -3.2 0 3.2
v -3.2 0.1 3.2
v 2 0 3.2
v 2 0.1 3.2
v 3.2 0 3.2
v 3.2 0.1 3.2
v 3 0.1 3.1
v 3 0.2 3.1
v 3.2 0.1 3.1
v 3.2 0.2 3.1
v 2.7 0.1 1.5
v 2.7 0.2 1.5
v 3.1 0.1 1.5
v 3.1 0.2 1.5
v 2.5 0.1 -0.2
v 2.5 0.2 -0.2
v 2.8 0.1 -0.2
v 2.8 0.2 -0.2
v 2.2 0.1 -1.4
v 2.2 0.2 -1.4
v 2.6 0.1 -1.4
v 2.6 0.2 -1.4
v 2.7 0.1 -2.5
v 2.7 0.2 -2.5
v 3.2 0.1 -2.5
v 3.2 0.2 -2.5
v 3 0.1 2.8
v 3 0.2 2.8
v 3.2 0.1 2.8
v 3.2 0.2 2.8
v 2.7 0.1 1.2
v 2.7 0.2 1.2
v 3.1 0.1 1.2
v 3.1 0.2 1.2
v 2.5 0.1 -0.5
v 2.5 0.2 -0.5
v 2.8 0.1 -0.5
v 2.8 0.2 -0.5
v 2.2 0.1 -1.8
v 2.2 0.2 -1.8
v 2.6 0.1 -1.8
v 2.6 0.2 -1.8
v 2.7 0.1 -2.8
v 2.7 0.2 -2.8
v 3.2 0.1 -2.8
v 3.2 0.2 -2.8
v -3.2 0 -3.2
v -3.2 0.1 -3.2
v 2 0 -3.2
v 2 0.1 -3.2
v 3.2 0 -3.2
v 3.2 0.1 -3.2
v -3.2 0 3.2
v 2 0 3.2
v 3.2 0 3.2
v -3.2 0 -3.2
v 2 0 -3.2
v 3.2 0 -3.2
v -3.2 0.1 3.2
v 2 0.1 3.2
v 3.2 0.1 3.2
v 3 0.1 3.1
v 3.2 0.1 3.1
v 3 0.1 2.8
v 3.2 0.1 2.8
v 2.7 0.1 1.5
v 3.1 0.1 1.5
v 2.7 0.1 1.2
v 3.1 0.1 1.2
v 2.5 0.1 -0.2
v 2.8 0.1 -0.2
v 2.5 0.1 -0.5
v 2.8 0.1 -0.5
v 2.2 0.1 -1.4
v 2.6 0.1 -1.4
v 2.2 0.1 -1.8
v 2.6 0.1 -1.8
v 2.7 0.1 -2.5
v 3.2 0.1 -2.5
v 2.7 0.1 -2.8
v 3.2 0.1 -2.8
v -3.2 0.1 -3.2
v 2 0.1 -3.2
v 3.2 0.1 -3.2
v 3 0.2 3.1
v 3.2 0.2 3.1
v 3 0.2 2.8
v 3.2 0.2 2.8
v 2.7 0.2 1.5
v 3.1 0.2 1.5
v 2.7 0.2 1.2
v 3.1 0.2 1.2
v 2.5 0.2 -0.2
v 2.8 0.2 -0.2
v 2.5 0.2 -0.5
v 2.8 0.2 -0.5
v 2.2 0.2 -1.4
v 2.6 0.2 -1.4
v 2.2 0.2 -1.8
v 2.6 0.2 -1.8
v 2.7 0.2 -2.5
v 3.2 0.2 -2.5
v 2.7 0.2 -2.8
v 3.2 0.2 -2.8

# faces
f 3/1/1 2/1/1 1/1/1
f 4/1/1 2/1/1 3/1/1
f 7/2/1 6/2/1 5/2/1
f 8/2/1 6/2/1 7/2/1
f 11/2/1 10/2/1 9/2/1
f 12/2/1 10/2/1 11/2/1
f 17/2/1 14/2/1 13/2/1
f 18/2/1 14/2/1 17/2/1
f 19/2/1 16/2/1 15/2/1
f 20/2/1 16/2/1 19/2/1
f 23/2/1 22/2/1 21/2/1
f 24/2/1 22/2/1 23/2/1
f 25/2/2 26/2/2 27/2/2
f 27/2/2 26/2/2 28/2/2
f 29/2/2 30/2/2 31/2/2
f 31/2/2 30/2/2 32/2/2
f 33/2/2 34/2/2 35/2/2
f 35/2/2 34/2/2 36/2/2
f 37/3/2 38/3/2 39/3/2
f 39/3/2 38/3/2 40/3/2
f 40/3/2 38/3/2 41/3/2
f 41/3/2 38/3/2 42/3/2
f 42/3/2 38/3/2 43/3/2
f 43/3/2 38/3/2 44/3/2
f 40/2/2 41/2/2 45/2/2
f 45/2/2 41/2/2 46/2/2
f 42/2/2 43/2/2 47/2/2
f 47/2/2 43/2/2 48/2/2
f 51/1/3 50/1/3 49/1/3
f 52/1/3 50/1/3 51/1/3
f 53/3/3 52/3/3 51/3/3
f 54/3/3 52/3/3 53/3/3
f 57/2/3 56/2/3 55/2/3
f 58/2/3 56/2/3 57/2/3
f 61/2/3 60/2/3 59/2/3
f 62/2/3 60/2/3 61/2/3
f 65/2/3 64/2/3 63/2/3
f 66/2/3 64/2/3 65/2/3
f 69/2/3 68/2/3 67/2/3
f 70/2/3 68/2/3 69/2/3
f 73/2/3 72/2/3 71/2/3
f 74/2/3 72/2/3 73/2/3
f 75/2/4 76/2/4 77/2/4
f 77/2/4 76/2/4 78/2/4
f 79/2/4 80/2/4 81/2/4
f 81/2/4 80/2/4 82/2/4
f 83/2/4 84/2/4 85/2/4
f 85/2/4 84/2/4 86/2/4
f 87/2/4 88/2/4 89/2/4
f 89/2/4 88/2/4 90/2/4
f 91/2/4 92/2/4 93/2/4
f 93/2/4 92/2/4 94/2/4
f 95/1/4 96/1/4 97/1/4
f 97/1/4 96/1/4 98/1/4
f 97/3/4 98/3/4 99/3/4
f 99/3/4 98/3/4 100/3/4
f 104/1/5 102/1/5 101/1/5
f 105/3/5 103/3/5 102/3/5
f 105/1/5 102/1/5 104/1/5
f 106/3/5 103/3/5 105/3/5
f 108/3/6 109/3/6 110/3/6
f 110/3/6 109/3/6 111/3/6
f 108/3/6 110/3/6 112/3/6
f 108/3/6 112/3/6 114/3/6
f 112/3/6 113/3/6 114/3/6
f 114/3/6 113/3/6 115/3/6
f 108/3/6 114/3/6 116/3/6
f 115/3/6 113/3/6 117/3/6
f 108/3/6 116/3/6 118/3/6
f 116/3/6 117/3/6 118/3/6
f 118/3/6 117/3/6 119/3/6
f 108/3/6 118/3/6 120/3/6
f 119/3/6 117/3/6 121/3/6
f 108/3/6 120/3/6 122/3/6
f 120/3/6 121/3/6 122/3/6
f 122/3/6 121/3/6 123/3/6
f 108/3/6 122/3/6 124/3/6
f 123/3/6 121/3/6 125/3/6
f 125/3/6 121/3/6 126/3/6
f 124/3/6 125/3/6 126/3/6
f 117/3/6 113/3/6 127/3/6
f 126/3/6 121/3/6 127/3/6
f 121/3/6 117/3/6 127/3/6
f 124/3/6 126/3/6 128/3/6
f 107/1/6 108/1/6 130/1/6
f 128/3/6 129/3/6 131/3/6
f 130/1/6 108/1/6 131/1/6
f 108/3/6 124/3/6 131/3/6
f 124/3/6 128/3/6 131/3/6
f 131/3/6 129/3/6 132/3/6
f 133/2/6 134/2/6 135/2/6
f 135/2/6 134/2/6 136/2/6
f 137/2/6 138/2/6 139/2/6
f 139/2/6 138/2/6 140/2/6
f 141/2/6 142/2/6 143/2/6
f 143/2/6 142/2/6 144/2/6
f 145/2/6 146/2/6 147/2/6
f 147/2/6 146/2/6 148/2/6
f 149/2/6 150/2/6 151/2/6
f 151/2/6 150/2/6 152/2/6
