# MagicaVoxel @ Ephtracy

# group
o 

# material
mtllib Earth_Right_Up_1.mtl
usemtl palette

# normals
vn -1 0 0
vn 1 0 0
vn 0 0 1
vn 0 0 -1
vn 0 -1 0
vn 0 1 0

# texcoords
vt 0.986328 0.5
vt 0.990234 0.5
vt 0.994141 0.5

# verts
v -3.2 0 3.2
v -3.2 0 2
v -3.2 0 -3.2
v -3.2 0.1 3.2
v -3.2 0.1 2
v -3.2 0.1 -3.2
v -2.5 0.1 2.6
v -2.5 0.1 2.3
v -2.5 0.2 2.6
v -2.5 0.2 2.3
v -2.1 0.1 2.6
v -2.1 0.1 2.3
v -2.1 0.2 2.6
v -2.1 0.2 2.3
v 3.2 0 3.2
v 3.2 0 -3.2
v 3.2 0.1 3.2
v 3.2 0.1 -3.2
v -3.2 0 3.2
v -3.2 0.1 3.2
v -2 0 3.2
v -2 0.1 3.2
v 3.2 0 3.2
v 3.2 0.1 3.2
v -2.5 0.1 2.6
v -2.5 0.2 2.6
v -2.1 0.1 2.6
v -2.1 0.2 2.6
v -2.5 0.1 2.3
v -2.5 0.2 2.3
v -2.1 0.1 2.3
v -2.1 0.2 2.3
v -3.2 0 -3.2
v -3.2 0.1 -3.2
v 3.2 0 -3.2
v 3.2 0.1 -3.2
v -3.2 0 3.2
v -2 0 3.2
v 3.2 0 3.2
v -3.2 0 2
v -2 0 2
v -3.2 0 -3.2
v 3.2 0 -3.2
v -3.2 0.1 3.2
v -2 0.1 3.2
v 3.2 0.1 3.2
v -2.5 0.1 2.6
v -2.1 0.1 2.6
v -2.5 0.1 2.3
v -2.1 0.1 2.3
v -3.2 0.1 2
v -2 0.1 2
v -3.2 0.1 -3.2
v 3.2 0.1 -3.2
v -2.5 0.2 2.6
v -2.1 0.2 2.6
v -2.5 0.2 2.3
v -2.1 0.2 2.3

# faces
f 4/3/1 2/3/1 1/3/1
f 5/1/1 3/1/1 2/1/1
f 5/3/1 2/3/1 4/3/1
f 6/1/1 3/1/1 5/1/1
f 9/2/1 8/2/1 7/2/1
f 10/2/1 8/2/1 9/2/1
f 11/2/2 12/2/2 13/2/2
f 13/2/2 12/2/2 14/2/2
f 15/1/2 16/1/2 17/1/2
f 17/1/2 16/1/2 18/1/2
f 21/3/3 20/3/3 19/3/3
f 22/3/3 20/3/3 21/3/3
f 23/1/3 22/1/3 21/1/3
f 24/1/3 22/1/3 23/1/3
f 27/2/3 26/2/3 25/2/3
f 28/2/3 26/2/3 27/2/3
f 29/2/4 30/2/4 31/2/4
f 31/2/4 30/2/4 32/2/4
f 33/1/4 34/1/4 35/1/4
f 35/1/4 34/1/4 36/1/4
f 40/3/5 38/3/5 37/3/5
f 41/1/5 39/1/5 38/1/5
f 41/3/5 38/3/5 40/3/5
f 42/1/5 41/1/5 40/1/5
f 43/1/5 39/1/5 41/1/5
f 43/1/5 41/1/5 42/1/5
f 44/3/6 45/3/6 47/3/6
f 47/3/6 45/3/6 48/3/6
f 44/3/6 47/3/6 49/3/6
f 48/3/6 45/3/6 50/3/6
f 44/3/6 49/3/6 51/3/6
f 49/3/6 50/3/6 51/3/6
f 45/1/6 46/1/6 52/1/6
f 51/3/6 50/3/6 52/3/6
f 50/3/6 45/3/6 52/3/6
f 51/1/6 52/1/6 53/1/6
f 52/1/6 46/1/6 54/1/6
f 53/1/6 52/1/6 54/1/6
f 55/2/6 56/2/6 57/2/6
f 57/2/6 56/2/6 58/2/6
