# MagicaVoxel @ Ephtracy

# group
o 

# material
mtllib flover_5.1.mtl
usemtl palette

# normals
vn -1 0 0
vn 1 0 0
vn 0 0 1
vn 0 0 -1
vn 0 -1 0
vn 0 1 0

# texcoords
vt 0.990234 0.5
vt 0.994141 0.5

# verts
v -0.1 0 0.1
v -0.1 0 0
v -0.1 0.2 0
v -0.1 0.2 -0.1
v -0.1 0.3 0
v -0.1 0.3 -0.1
v -0.1 0.3 -0.2
v -0.1 0.4 0.1
v -0.1 0.4 0
v -0.1 0.4 -0.1
v -0.1 0.4 -0.2
v -0.1 0.5 0.1
v -0.1 0.5 0
v -0.1 0.5 -0.1
v -0.1 0.5 -0.2
v -0.1 0.6 0.1
v -0.1 0.6 0
v -0.1 0.7 0.1
v -0.1 0.7 0
v -0.1 0.8 0.1
v -0.1 0.8 0
v -0.1 0.9 0.1
v -0.1 0.9 0
v -0.1 1 0.1
v -0.1 1 0
v 0 0.4 0.1
v 0 0.4 0
v 0 0.5 0.1
v 0 0.5 0
v 0 0.6 0.2
v 0 0.6 0.1
v 0 0.6 0
v 0 0.6 -0.1
v 0 0.7 0.2
v 0 0.7 0.1
v 0 0.7 0
v 0 0.7 -0.1
v 0 0.8 0.2
v 0 0.8 0.1
v 0 0.8 0
v 0 0.8 -0.1
v 0 0.9 0.2
v 0 0.9 0.1
v 0 0.9 0
v 0 0.9 -0.1
v 0 1 0.2
v 0 1 0.1
v 0 1 0
v 0 1 -0.1
v 0 1.1 0.2
v 0 1.1 0.1
v 0 1.1 0
v 0 1.1 -0.1
v 0 1.2 0.1
v 0 1.2 0
v 0 0 0.1
v 0 0 0
v 0 0.2 0
v 0 0.2 -0.1
v 0 0.3 0
v 0 0.3 -0.1
v 0 0.3 -0.2
v 0 0.4 0.1
v 0 0.4 0
v 0 0.4 -0.1
v 0 0.4 -0.2
v 0 0.5 -0.1
v 0 0.5 -0.2
v 0.1 0.4 0.1
v 0.1 0.4 0
v 0.1 0.5 0.1
v 0.1 0.5 0
v 0.1 0.6 0.2
v 0.1 0.6 0.1
v 0.1 0.6 0
v 0.1 0.6 -0.1
v 0.1 0.7 0.2
v 0.1 0.7 0.1
v 0.1 0.7 0
v 0.1 0.7 -0.1
v 0.1 0.8 0.2
v 0.1 0.8 0.1
v 0.1 0.8 0
v 0.1 0.8 -0.1
v 0.1 0.9 0.2
v 0.1 0.9 0.1
v 0.1 0.9 0
v 0.1 0.9 -0.1
v 0.1 1 0.2
v 0.1 1 0.1
v 0.1 1 0
v 0.1 1 -0.1
v 0.1 1.1 0.2
v 0.1 1.1 0.1
v 0.1 1.1 0
v 0.1 1.1 -0.1
v 0.1 1.2 0.1
v 0.1 1.2 0
v 0.2 0.5 0.1
v 0.2 0.5 0
v 0.2 0.6 0.1
v 0.2 0.6 0
v 0.2 0.7 0.1
v 0.2 0.7 0
v 0.2 0.8 0.1
v 0.2 0.8 0
v 0.2 0.9 0.1
v 0.2 0.9 0
v 0.2 1 0.1
v 0.2 1 0
v 0 0.6 0.2
v 0 0.7 0.2
v 0 0.8 0.2
v 0 0.9 0.2
v 0 1 0.2
v 0 1.1 0.2
v 0.1 0.6 0.2
v 0.1 0.7 0.2
v 0.1 0.8 0.2
v 0.1 0.9 0.2
v 0.1 1 0.2
v 0.1 1.1 0.2
v -0.1 0 0.1
v -0.1 0.4 0.1
v -0.1 0.5 0.1
v -0.1 0.6 0.1
v -0.1 0.7 0.1
v -0.1 0.8 0.1
v -0.1 0.9 0.1
v -0.1 1 0.1
v 0 0 0.1
v 0 0.4 0.1
v 0 0.5 0.1
v 0 0.6 0.1
v 0 0.7 0.1
v 0 0.8 0.1
v 0 0.9 0.1
v 0 1 0.1
v 0 1.1 0.1
v 0 1.2 0.1
v 0.1 0.4 0.1
v 0.1 0.5 0.1
v 0.1 0.6 0.1
v 0.1 0.7 0.1
v 0.1 0.8 0.1
v 0.1 0.9 0.1
v 0.1 1 0.1
v 0.1 1.1 0.1
v 0.1 1.2 0.1
v 0.2 0.5 0.1
v 0.2 0.6 0.1
v 0.2 0.7 0.1
v 0.2 0.8 0.1
v 0.2 0.9 0.1
v 0.2 1 0.1
v -0.1 0.3 -0.1
v -0.1 0.4 -0.1
v -0.1 0.5 -0.1
v 0 0.3 -0.1
v 0 0.4 -0.1
v 0 0.5 -0.1
v -0.1 0 0
v -0.1 0.2 0
v -0.1 0.3 0
v -0.1 0.4 0
v -0.1 0.5 0
v -0.1 0.6 0
v -0.1 0.7 0
v -0.1 0.8 0
v -0.1 0.9 0
v -0.1 1 0
v 0 0 0
v 0 0.2 0
v 0 0.3 0
v 0 0.4 0
v 0 0.5 0
v 0 0.6 0
v 0 0.7 0
v 0 0.8 0
v 0 0.9 0
v 0 1 0
v 0 1.1 0
v 0 1.2 0
v 0.1 0.4 0
v 0.1 0.5 0
v 0.1 0.6 0
v 0.1 0.7 0
v 0.1 0.8 0
v 0.1 0.9 0
v 0.1 1 0
v 0.1 1.1 0
v 0.1 1.2 0
v 0.2 0.5 0
v 0.2 0.6 0
v 0.2 0.7 0
v 0.2 0.8 0
v 0.2 0.9 0
v 0.2 1 0
v -0.1 0.2 -0.1
v -0.1 0.3 -0.1
v 0 0.2 -0.1
v 0 0.3 -0.1
v 0 0.6 -0.1
v 0 0.7 -0.1
v 0 0.8 -0.1
v 0 0.9 -0.1
v 0 1 -0.1
v 0 1.1 -0.1
v 0.1 0.6 -0.1
v 0.1 0.7 -0.1
v 0.1 0.8 -0.1
v 0.1 0.9 -0.1
v 0.1 1 -0.1
v 0.1 1.1 -0.1
v -0.1 0.3 -0.2
v -0.1 0.4 -0.2
v -0.1 0.5 -0.2
v 0 0.3 -0.2
v 0 0.4 -0.2
v 0 0.5 -0.2
v -0.1 0 0.1
v 0 0 0.1
v -0.1 0 0
v 0 0 0
v -0.1 0.2 0
v 0 0.2 0
v -0.1 0.2 -0.1
v 0 0.2 -0.1
v -0.1 0.3 -0.1
v 0 0.3 -0.1
v -0.1 0.3 -0.2
v 0 0.3 -0.2
v 0 0.4 0.1
v 0.1 0.4 0.1
v 0 0.4 0
v 0.1 0.4 0
v -0.1 0.5 0.1
v 0 0.5 0.1
v 0.1 0.5 0.1
v 0.2 0.5 0.1
v -0.1 0.5 0
v 0 0.5 0
v 0.1 0.5 0
v 0.2 0.5 0
v 0 0.6 0.2
v 0.1 0.6 0.2
v 0 0.6 0.1
v 0.1 0.6 0.1
v 0 0.6 0
v 0.1 0.6 0
v 0 0.6 -0.1
v 0.1 0.6 -0.1
v -0.1 0.7 0.1
v 0 0.7 0.1
v 0.1 0.7 0.1
v 0.2 0.7 0.1
v -0.1 0.7 0
v 0 0.7 0
v 0.1 0.7 0
v 0.2 0.7 0
v 0 0.8 0.2
v 0.1 0.8 0.2
v 0 0.8 0.1
v 0.1 0.8 0.1
v 0 0.8 0
v 0.1 0.8 0
v 0 0.8 -0.1
v 0.1 0.8 -0.1
v -0.1 0.9 0.1
v 0 0.9 0.1
v 0.1 0.9 0.1
v 0.2 0.9 0.1
v -0.1 0.9 0
v 0 0.9 0
v 0.1 0.9 0
v 0.2 0.9 0
v 0 1 0.2
v 0.1 1 0.2
v 0 1 0.1
v 0.1 1 0.1
v 0 1 0
v 0.1 1 0
v 0 1 -0.1
v 0.1 1 -0.1
v -0.1 0.3 0
v 0 0.3 0
v -0.1 0.3 -0.1
v 0 0.3 -0.1
v -0.1 0.4 0.1
v 0 0.4 0.1
v -0.1 0.4 0
v 0 0.4 0
v -0.1 0.5 -0.1
v 0 0.5 -0.1
v -0.1 0.5 -0.2
v 0 0.5 -0.2
v -0.1 0.6 0.1
v 0 0.6 0.1
v 0.1 0.6 0.1
v 0.2 0.6 0.1
v -0.1 0.6 0
v 0 0.6 0
v 0.1 0.6 0
v 0.2 0.6 0
v 0 0.7 0.2
v 0.1 0.7 0.2
v 0 0.7 0.1
v 0.1 0.7 0.1
v 0 0.7 0
v 0.1 0.7 0
v 0 0.7 -0.1
v 0.1 0.7 -0.1
v -0.1 0.8 0.1
v 0 0.8 0.1
v 0.1 0.8 0.1
v 0.2 0.8 0.1
v -0.1 0.8 0
v 0 0.8 0
v 0.1 0.8 0
v 0.2 0.8 0
v 0 0.9 0.2
v 0.1 0.9 0.2
v 0 0.9 0.1
v 0.1 0.9 0.1
v 0 0.9 0
v 0.1 0.9 0
v 0 0.9 -0.1
v 0.1 0.9 -0.1
v -0.1 1 0.1
v 0 1 0.1
v 0.1 1 0.1
v 0.2 1 0.1
v -0.1 1 0
v 0 1 0
v 0.1 1 0
v 0.2 1 0
v 0 1.1 0.2
v 0.1 1.1 0.2
v 0 1.1 0.1
v 0.1 1.1 0.1
v 0 1.1 0
v 0.1 1.1 0
v 0 1.1 -0.1
v 0.1 1.1 -0.1
v 0 1.2 0.1
v 0.1 1.2 0.1
v 0 1.2 0
v 0.1 1.2 0

# faces
f 3/2/1 2/2/1 1/2/1
f 5/2/1 3/2/1 1/2/1
f 5/2/1 4/2/1 3/2/1
f 6/2/1 4/2/1 5/2/1
f 8/2/1 5/2/1 1/2/1
f 9/2/1 5/2/1 8/2/1
f 10/2/1 7/2/1 6/2/1
f 11/2/1 7/2/1 10/2/1
f 14/1/1 11/1/1 10/1/1
f 15/1/1 11/1/1 14/1/1
f 16/1/1 13/1/1 12/1/1
f 17/1/1 13/1/1 16/1/1
f 20/1/1 19/1/1 18/1/1
f 21/1/1 19/1/1 20/1/1
f 24/1/1 23/1/1 22/1/1
f 25/1/1 23/1/1 24/1/1
f 28/2/1 27/2/1 26/2/1
f 29/2/1 27/2/1 28/2/1
f 34/1/1 31/1/1 30/1/1
f 35/2/1 32/2/1 31/2/1
f 35/1/1 31/1/1 34/1/1
f 36/1/1 33/1/1 32/1/1
f 36/2/1 32/2/1 35/2/1
f 37/1/1 33/1/1 36/1/1
f 42/1/1 39/1/1 38/1/1
f 43/2/1 40/2/1 39/2/1
f 43/1/1 39/1/1 42/1/1
f 44/1/1 41/1/1 40/1/1
f 44/2/1 40/2/1 43/2/1
f 45/1/1 41/1/1 44/1/1
f 50/1/1 47/1/1 46/1/1
f 51/2/1 48/2/1 47/2/1
f 51/1/1 47/1/1 50/1/1
f 52/1/1 49/1/1 48/1/1
f 52/2/1 48/2/1 51/2/1
f 53/1/1 49/1/1 52/1/1
f 54/1/1 52/1/1 51/1/1
f 55/1/1 52/1/1 54/1/1
f 56/2/2 57/2/2 58/2/2
f 56/2/2 58/2/2 60/2/2
f 58/2/2 59/2/2 60/2/2
f 60/2/2 59/2/2 61/2/2
f 56/2/2 60/2/2 63/2/2
f 63/2/2 60/2/2 64/2/2
f 61/2/2 62/2/2 65/2/2
f 65/2/2 62/2/2 66/2/2
f 65/1/2 66/1/2 67/1/2
f 67/1/2 66/1/2 68/1/2
f 69/2/2 70/2/2 71/2/2
f 71/2/2 70/2/2 72/2/2
f 73/1/2 74/1/2 77/1/2
f 74/2/2 75/2/2 78/2/2
f 77/1/2 74/1/2 78/1/2
f 75/1/2 76/1/2 79/1/2
f 78/2/2 75/2/2 79/2/2
f 79/1/2 76/1/2 80/1/2
f 81/1/2 82/1/2 85/1/2
f 82/2/2 83/2/2 86/2/2
f 85/1/2 82/1/2 86/1/2
f 83/1/2 84/1/2 87/1/2
f 86/2/2 83/2/2 87/2/2
f 87/1/2 84/1/2 88/1/2
f 89/1/2 90/1/2 93/1/2
f 90/2/2 91/2/2 94/2/2
f 93/1/2 90/1/2 94/1/2
f 91/1/2 92/1/2 95/1/2
f 94/2/2 91/2/2 95/2/2
f 95/1/2 92/1/2 96/1/2
f 94/1/2 95/1/2 97/1/2
f 97/1/2 95/1/2 98/1/2
f 99/1/2 100/1/2 101/1/2
f 101/1/2 100/1/2 102/1/2
f 103/1/2 104/1/2 105/1/2
f 105/1/2 104/1/2 106/1/2
f 107/1/2 108/1/2 109/1/2
f 109/1/2 108/1/2 110/1/2
f 117/1/3 112/1/3 111/1/3
f 118/1/3 112/1/3 117/1/3
f 119/1/3 114/1/3 113/1/3
f 120/1/3 114/1/3 119/1/3
f 121/1/3 116/1/3 115/1/3
f 122/1/3 116/1/3 121/1/3
f 131/2/3 124/2/3 123/2/3
f 132/2/3 124/2/3 131/2/3
f 133/1/3 126/1/3 125/1/3
f 134/1/3 126/1/3 133/1/3
f 135/1/3 128/1/3 127/1/3
f 136/1/3 128/1/3 135/1/3
f 137/1/3 130/1/3 129/1/3
f 138/1/3 130/1/3 137/1/3
f 141/2/3 134/2/3 133/2/3
f 141/2/3 133/2/3 132/2/3
f 142/2/3 134/2/3 141/2/3
f 143/2/3 134/2/3 142/2/3
f 144/2/3 136/2/3 135/2/3
f 145/2/3 136/2/3 144/2/3
f 146/2/3 138/2/3 137/2/3
f 147/2/3 138/2/3 146/2/3
f 148/1/3 140/1/3 139/1/3
f 149/1/3 140/1/3 148/1/3
f 150/1/3 143/1/3 142/1/3
f 151/1/3 143/1/3 150/1/3
f 152/1/3 145/1/3 144/1/3
f 153/1/3 145/1/3 152/1/3
f 154/1/3 147/1/3 146/1/3
f 155/1/3 147/1/3 154/1/3
f 159/2/3 157/2/3 156/2/3
f 160/1/3 158/1/3 157/1/3
f 160/2/3 157/2/3 159/2/3
f 161/1/3 158/1/3 160/1/3
f 162/2/4 163/2/4 172/2/4
f 172/2/4 163/2/4 173/2/4
f 164/2/4 165/2/4 174/2/4
f 174/2/4 165/2/4 175/2/4
f 166/1/4 167/1/4 176/1/4
f 176/1/4 167/1/4 177/1/4
f 168/1/4 169/1/4 178/1/4
f 178/1/4 169/1/4 179/1/4
f 170/1/4 171/1/4 180/1/4
f 180/1/4 171/1/4 181/1/4
f 176/2/4 177/2/4 184/2/4
f 175/2/4 176/2/4 184/2/4
f 184/2/4 177/2/4 185/2/4
f 185/2/4 177/2/4 186/2/4
f 178/2/4 179/2/4 187/2/4
f 187/2/4 179/2/4 188/2/4
f 180/2/4 181/2/4 189/2/4
f 189/2/4 181/2/4 190/2/4
f 182/1/4 183/1/4 191/1/4
f 191/1/4 183/1/4 192/1/4
f 185/1/4 186/1/4 193/1/4
f 193/1/4 186/1/4 194/1/4
f 187/1/4 188/1/4 195/1/4
f 195/1/4 188/1/4 196/1/4
f 189/1/4 190/1/4 197/1/4
f 197/1/4 190/1/4 198/1/4
f 199/2/4 200/2/4 201/2/4
f 201/2/4 200/2/4 202/2/4
f 203/1/4 204/1/4 209/1/4
f 209/1/4 204/1/4 210/1/4
f 205/1/4 206/1/4 211/1/4
f 211/1/4 206/1/4 212/1/4
f 207/1/4 208/1/4 213/1/4
f 213/1/4 208/1/4 214/1/4
f 215/2/4 216/2/4 218/2/4
f 216/1/4 217/1/4 219/1/4
f 218/2/4 216/2/4 219/2/4
f 219/1/4 217/1/4 220/1/4
f 223/2/5 222/2/5 221/2/5
f 224/2/5 222/2/5 223/2/5
f 227/2/5 226/2/5 225/2/5
f 228/2/5 226/2/5 227/2/5
f 231/2/5 230/2/5 229/2/5
f 232/2/5 230/2/5 231/2/5
f 235/2/5 234/2/5 233/2/5
f 236/2/5 234/2/5 235/2/5
f 241/1/5 238/1/5 237/1/5
f 242/1/5 238/1/5 241/1/5
f 243/1/5 240/1/5 239/1/5
f 244/1/5 240/1/5 243/1/5
f 247/1/5 246/1/5 245/1/5
f 248/1/5 246/1/5 247/1/5
f 251/1/5 250/1/5 249/1/5
f 252/1/5 250/1/5 251/1/5
f 257/1/5 254/1/5 253/1/5
f 258/1/5 254/1/5 257/1/5
f 259/1/5 256/1/5 255/1/5
f 260/1/5 256/1/5 259/1/5
f 263/1/5 262/1/5 261/1/5
f 264/1/5 262/1/5 263/1/5
f 267/1/5 266/1/5 265/1/5
f 268/1/5 266/1/5 267/1/5
f 273/1/5 270/1/5 269/1/5
f 274/1/5 270/1/5 273/1/5
f 275/1/5 272/1/5 271/1/5
f 276/1/5 272/1/5 275/1/5
f 279/1/5 278/1/5 277/1/5
f 280/1/5 278/1/5 279/1/5
f 283/1/5 282/1/5 281/1/5
f 284/1/5 282/1/5 283/1/5
f 285/2/6 286/2/6 287/2/6
f 287/2/6 286/2/6 288/2/6
f 289/2/6 290/2/6 291/2/6
f 291/2/6 290/2/6 292/2/6
f 293/1/6 294/1/6 295/1/6
f 295/1/6 294/1/6 296/1/6
f 297/1/6 298/1/6 301/1/6
f 301/1/6 298/1/6 302/1/6
f 299/1/6 300/1/6 303/1/6
f 303/1/6 300/1/6 304/1/6
f 305/1/6 306/1/6 307/1/6
f 307/1/6 306/1/6 308/1/6
f 309/1/6 310/1/6 311/1/6
f 311/1/6 310/1/6 312/1/6
f 313/1/6 314/1/6 317/1/6
f 317/1/6 314/1/6 318/1/6
f 315/1/6 316/1/6 319/1/6
f 319/1/6 316/1/6 320/1/6
f 321/1/6 322/1/6 323/1/6
f 323/1/6 322/1/6 324/1/6
f 325/1/6 326/1/6 327/1/6
f 327/1/6 326/1/6 328/1/6
f 329/1/6 330/1/6 333/1/6
f 333/1/6 330/1/6 334/1/6
f 331/1/6 332/1/6 335/1/6
f 335/1/6 332/1/6 336/1/6
f 337/1/6 338/1/6 339/1/6
f 339/1/6 338/1/6 340/1/6
f 341/1/6 342/1/6 343/1/6
f 343/1/6 342/1/6 344/1/6
f 345/1/6 346/1/6 347/1/6
f 347/1/6 346/1/6 348/1/6
